<svg width="80" height="30" viewBox="0 0 80 30" fill="none" xmlns="http://www.w3.org/2000/svg">
<path d="M9.5 23.96C11.2333 23.96 12.5667 23.3867 13.5 22.24C14.46 21.0667 15.0467 19.48 15.26 17.48C13.5533 18.6267 11.7133 19.2 9.74 19.2C7.12667 19.2 4.94 18.3467 3.18 16.64C1.44667 14.9067 0.58 12.6267 0.58 9.8C0.58 6.97333 1.51333 4.70667 3.38 3C5.27333 1.26667 7.64667 0.399999 10.5 0.399999C12.4733 0.399999 14.18 0.786665 15.62 1.56C17.0867 2.30666 18.2333 3.36 19.06 4.72C20.6333 7.36 21.42 10.6667 21.42 14.64C21.42 17.2 21.1 19.4533 20.46 21.4C19.8467 23.32 19.0067 24.84 17.94 25.96C15.7533 28.2 13.1 29.32 9.98 29.32C8.67333 29.32 7.42 29.1333 6.22 28.76C5.02 28.36 4.11333 27.9733 3.5 27.6C2.88667 27.2 2.18 26.6933 1.38 26.08L4.5 21.68C4.68667 21.84 4.92667 22.0533 5.22 22.32C5.54 22.56 6.14 22.8933 7.02 23.32C7.9 23.7467 8.72667 23.96 9.5 23.96ZM10.34 13.88C11.5933 13.88 12.6333 13.52 13.46 12.8C14.2867 12.08 14.7 11.1333 14.7 9.96C14.7 8.78667 14.3 7.77333 13.5 6.92C12.7 6.06666 11.7 5.64 10.5 5.64C9.3 5.64 8.31333 6.02667 7.54 6.8C6.79333 7.54667 6.42 8.50667 6.42 9.68C6.42 10.8533 6.76667 11.8533 7.46 12.68C8.15333 13.48 9.11333 13.88 10.34 13.88ZM29.7363 2.6C31.6029 1.13333 33.9229 0.399999 36.6963 0.399999C39.4696 0.399999 41.7763 1.13333 43.6163 2.6C45.4563 4.06667 46.3763 5.88 46.3763 8.04C46.3763 10.1733 45.5496 12.0133 43.8963 13.56C46.2163 15.3467 47.3763 17.6933 47.3763 20.6C47.3763 23.0533 46.3896 25.12 44.4163 26.8C42.4429 28.48 39.8696 29.32 36.6963 29.32C33.5229 29.32 30.9496 28.48 28.9763 26.8C27.0029 25.12 26.0163 23.0533 26.0163 20.6C26.0163 17.6933 27.1763 15.3467 29.4963 13.56C27.8163 11.9867 26.9763 10.1333 26.9763 8C26.9763 5.86667 27.8963 4.06667 29.7363 2.6ZM33.6563 23.2C34.5896 23.8133 35.6029 24.12 36.6963 24.12C37.7896 24.12 38.8029 23.8133 39.7363 23.2C40.6696 22.56 41.1363 21.64 41.1363 20.44C41.1363 19.24 40.6829 18.32 39.7763 17.68C38.8696 17.04 37.8429 16.72 36.6963 16.72C35.5496 16.72 34.5229 17.04 33.6163 17.68C32.7096 18.32 32.2563 19.24 32.2563 20.44C32.2563 21.64 32.7229 22.56 33.6563 23.2ZM34.0163 10.96C34.7896 11.6 35.6829 11.92 36.6963 11.92C37.7096 11.92 38.5896 11.6 39.3363 10.96C40.1096 10.32 40.4963 9.53333 40.4963 8.6C40.4963 7.64 40.1229 6.84 39.3763 6.2C38.6296 5.56 37.7363 5.24 36.6963 5.24C35.6563 5.24 34.7629 5.56 34.0163 6.2C33.2696 6.84 32.8963 7.64 32.8963 8.6C32.8963 9.53333 33.2696 10.32 34.0163 10.96ZM79.4403 1.04L59.4003 29H52.5203L72.6003 1.04H79.4403ZM72.7203 25.16C73.0403 25.5067 73.4403 25.68 73.9203 25.68C74.4003 25.68 74.8003 25.5067 75.1203 25.16C75.4403 24.7867 75.6003 24.3067 75.6003 23.72C75.6003 23.1333 75.4403 22.6533 75.1203 22.28C74.8003 21.88 74.4003 21.68 73.9203 21.68C73.467 21.68 73.0803 21.88 72.7603 22.28C72.4403 22.6533 72.2803 23.1333 72.2803 23.72C72.2803 24.3067 72.427 24.7867 72.7203 25.16ZM79.8403 23.72C79.8403 25.2933 79.2803 26.6267 78.1603 27.72C77.0403 28.7867 75.627 29.32 73.9203 29.32C72.2403 29.32 70.8403 28.7733 69.7203 27.68C68.6003 26.5867 68.0403 25.2667 68.0403 23.72C68.0403 22.1467 68.6003 20.8133 69.7203 19.72C70.8403 18.6267 72.2403 18.08 73.9203 18.08C75.627 18.08 77.0403 18.6267 78.1603 19.72C79.2803 20.8133 79.8403 22.1467 79.8403 23.72ZM56.9603 8.8C57.2803 9.14667 57.6803 9.32 58.1603 9.32C58.6403 9.32 59.0403 9.14667 59.3603 8.8C59.6803 8.42667 59.8403 7.94667 59.8403 7.36C59.8403 6.77333 59.6803 6.29333 59.3603 5.92C59.0403 5.52 58.6403 5.32 58.1603 5.32C57.707 5.32 57.3203 5.52 57.0003 5.92C56.6803 6.29333 56.5203 6.77333 56.5203 7.36C56.5203 7.94667 56.667 8.42667 56.9603 8.8ZM64.0803 7.36C64.0803 8.93333 63.5203 10.2667 62.4003 11.36C61.2803 12.4267 59.867 12.96 58.1603 12.96C56.4803 12.96 55.0803 12.4133 53.9603 11.32C52.8403 10.2267 52.2803 8.90667 52.2803 7.36C52.2803 5.78667 52.8403 4.45333 53.9603 3.36C55.0803 2.26667 56.4803 1.72 58.1603 1.72C59.867 1.72 61.2803 2.26667 62.4003 3.36C63.5203 4.45333 64.0803 5.78667 64.0803 7.36Z" fill="#252B42"/>
</svg>
